<svg width="130" height="55" viewBox="0 0 130 55" fill="none" xmlns="http://www.w3.org/2000/svg">
<path d="M128.863 28.2036L104.04 37.4253C103.141 37.7596 102.131 37.2968 101.796 36.397L92.5746 11.5745C92.2403 10.6746 92.7029 9.66478 93.6029 9.33049L118.425 0.108582C119.325 -0.225704 120.335 0.237103 120.669 1.13707L129.891 25.9594C130.225 26.8594 129.763 27.8691 128.863 28.2036Z" fill="#90C949"/>
<path d="M110.72 24.1476L110.726 26.4707L100.292 26.4989L100.285 24.0293C100.799 23.5956 101.257 23.1967 101.661 22.8327C102.064 22.469 102.508 22.056 102.992 21.5943C103.285 21.3005 103.549 21.0349 103.784 20.7969C104.018 20.559 104.282 20.2864 104.576 19.9785C104.766 19.7826 104.931 19.6044 105.071 19.4435C105.21 19.2829 105.368 19.0973 105.544 18.8875C105.617 18.8178 105.727 18.6849 105.873 18.489C106.02 18.2934 106.166 18.0768 106.313 17.839C106.401 17.6995 106.525 17.4511 106.686 17.0949C106.847 16.7389 106.926 16.3514 106.925 15.9328C106.925 15.7376 106.891 15.5216 106.824 15.2843C106.758 15.0473 106.632 14.828 106.448 14.6261C106.263 14.4245 106.013 14.2541 105.696 14.1154C105.379 13.9769 104.971 13.908 104.471 13.9093C104.206 13.9101 103.978 13.9248 103.787 13.953C103.596 13.9817 103.449 14.0098 103.347 14.038C102.891 14.137 102.476 14.2778 102.101 14.4598C101.727 14.6424 101.312 14.8598 100.857 15.1121L100.585 12.5177C100.702 12.4895 100.894 12.4158 101.158 12.2964C101.422 12.1773 101.709 12.075 102.017 11.9905C102.282 11.9062 102.73 11.8038 103.362 11.6835C103.994 11.5634 104.685 11.4952 105.435 11.479C106.097 11.4634 106.752 11.5455 107.399 11.7248C108.047 11.9046 108.651 12.2866 109.211 12.871C109.595 13.2748 109.868 13.7136 110.031 14.1873C110.15 14.5081 110.217 14.7936 110.232 15.0449C110.247 15.296 110.255 15.4774 110.256 15.589C110.257 16.0216 110.214 16.4088 110.126 16.7508C110.039 17.0932 109.959 17.3408 109.886 17.4945C109.667 18.0533 109.352 18.6156 108.942 19.1817C108.531 19.7481 108.07 20.311 107.557 20.8703C107.043 21.43 106.493 21.986 105.906 22.5386C105.32 23.0916 104.74 23.6337 104.168 24.1654L110.72 24.1476Z" fill="white"/>
<path d="M113.58 21.1881L117.396 21.1778L117.444 14.292L113.58 21.1881ZM120.393 11.6679L120.418 21.1696L122.139 21.1649L122.145 23.4252L120.424 23.4299L120.433 26.4436L117.322 26.452L117.314 23.4383L110.762 23.456L110.756 21.0911L116.422 11.6787L120.393 11.6679Z" fill="white"/>
<path d="M10.3276 19.1029V22.0356H3.79387V26.1075H10.0641V28.9192H3.79387V36.2147H0V19.1029H10.3276Z" fill="black"/>
<path d="M16.6767 19.1029V36.2147H12.9092V19.1029H16.6767Z" fill="black"/>
<path d="M32.7207 19.1029V21.9871H27.3988V36.2147H23.6051V21.9871H18.3096V19.1029H32.7207Z" fill="black"/>
<path d="M43.918 27.683C44.111 28.0063 44.2738 28.3011 44.4055 28.5676C44.5372 28.8344 44.6993 29.1293 44.8928 29.4523C45.1036 29.8401 45.2922 30.1878 45.4593 30.4946C45.626 30.8017 45.8058 31.149 45.9994 31.5368C46.0871 31.7307 46.1661 31.9045 46.2366 32.0579C46.3065 32.2117 46.3856 32.3851 46.4736 32.579C46.4209 32.1269 46.3769 31.7186 46.3419 31.3551C46.3065 30.9915 46.2801 30.5756 46.2628 30.1068C46.2274 29.8001 46.2101 29.525 46.2101 29.2826C46.2101 29.0403 46.2101 28.7657 46.2101 28.4586L46.1048 19.1029H49.5825V36.2147H45.1563L39.5183 26.5922C39.2548 26.1561 39.035 25.7924 38.8596 25.5015C38.684 25.2108 38.5305 24.9403 38.3987 24.6896C38.267 24.4393 38.1352 24.1686 38.0035 23.8777C37.8717 23.5868 37.7092 23.2233 37.516 22.7869C37.5861 23.5142 37.6345 24.1686 37.661 24.7502C37.6872 25.332 37.7177 25.9946 37.7532 26.7377L37.8322 36.2147H34.3281V19.1029H38.8333L43.918 27.683Z" fill="black"/>
<path d="M64.8622 19.1029V21.9871H57.6434V26.059H64.2562V28.8706H57.6434V33.3303H64.9412V36.2147H53.8232V19.1029H64.8622Z" fill="black"/>
<path d="M77.6661 22.2292C77.508 22.1649 77.3849 22.1163 77.2973 22.0837C77.2091 22.0516 77.1346 22.0231 77.0735 21.9989C77.0115 21.9747 76.9503 21.9547 76.8888 21.9384C76.8271 21.9225 76.744 21.8983 76.6386 21.8656C76.0237 21.688 75.4927 21.579 75.0447 21.5385C74.5967 21.4984 74.2499 21.4779 74.004 21.4779C73.4417 21.4779 72.9543 21.5347 72.5418 21.6475C72.1289 21.7607 71.8173 21.9062 71.6066 22.0837C71.3078 22.294 71.106 22.5322 71.0006 22.7989C70.8953 23.0655 70.8425 23.304 70.8425 23.5139C70.8425 23.8047 70.8907 24.047 70.9873 24.2409C71.0838 24.4349 71.185 24.5887 71.2903 24.7014C71.4835 24.9117 71.7119 25.0813 71.9754 25.2105C72.2388 25.34 72.5901 25.4854 73.0292 25.6467C73.3101 25.7438 73.5561 25.8326 73.7671 25.9132C73.9777 25.9944 74.2234 26.083 74.5047 26.18C75.3124 26.4549 75.98 26.7374 76.507 27.0283C77.0338 27.3191 77.4639 27.6263 77.7978 27.9493C78.1313 28.2727 78.3948 28.6038 78.5881 28.9431C78.7812 29.2824 78.9176 29.6017 78.9964 29.9005C79.0756 30.1998 79.1237 30.4579 79.1416 30.6761C79.1587 30.8943 79.1679 31.0518 79.1679 31.1487C79.1851 31.7304 79.0888 32.3327 78.8781 32.9545C78.6672 33.5766 78.2808 34.1541 77.7187 34.6874C77.5081 34.9139 77.2708 35.1079 77.0074 35.2692C76.6032 35.5441 76.1907 35.7539 75.7692 35.8994C75.3475 36.0448 75.0928 36.1258 75.0052 36.1417C74.5482 36.2707 74.0872 36.3515 73.6219 36.3841C73.1566 36.4163 72.6954 36.4325 72.2388 36.4325C72.1508 36.4325 71.9886 36.4284 71.7515 36.4204C71.5143 36.412 71.2333 36.3962 70.9085 36.3718C70.5831 36.3478 70.2322 36.3152 69.8547 36.2751C69.4767 36.2344 69.1039 36.1743 68.7349 36.0932C68.4887 36.0448 68.2694 35.9963 68.0763 35.9479C67.8827 35.8994 67.6634 35.8348 67.4176 35.7539L67.7338 32.6515C68.0501 32.8132 68.3002 32.9301 68.4846 33.0029C68.669 33.0756 68.8312 33.1362 68.972 33.1848C69.4285 33.3465 69.9247 33.4718 70.4605 33.5603C70.996 33.6495 71.4921 33.6937 71.9491 33.6937C72.5814 33.6937 73.1914 33.5889 73.7801 33.3786C74.3684 33.1688 74.7944 32.7889 75.0579 32.2393C75.0928 32.1751 75.1323 32.0698 75.1765 31.9244C75.22 31.7789 75.2422 31.6175 75.2422 31.4395C75.2422 31.1973 75.1852 30.9469 75.0711 30.6882C74.9567 30.4299 74.7681 30.1956 74.5047 29.9853C74.2057 29.727 73.7492 29.4926 73.1346 29.2824C72.5196 29.0726 71.8083 28.806 71.0006 28.4825C70.7721 28.3856 70.57 28.3008 70.3947 28.2281C70.219 28.1554 70.0258 28.0626 69.8152 27.9493C69.5162 27.8203 69.2574 27.679 69.0378 27.5252C68.818 27.3718 68.6557 27.2547 68.5504 27.1736C67.9182 26.6568 67.5007 26.1114 67.2991 25.5377C67.0969 24.9643 66.9961 24.3947 66.9961 23.8289C66.9961 23.3283 67.0441 22.9163 67.1411 22.5928C67.2372 22.2697 67.3384 21.9952 67.4441 21.7686C67.6721 21.2679 67.9709 20.8477 68.3397 20.5083C68.7085 20.169 69.0727 19.8986 69.4332 19.6963C69.7928 19.4944 70.1222 19.349 70.421 19.2601C70.7195 19.1715 70.9215 19.1108 71.0268 19.0782C71.4658 18.9655 71.9004 18.8926 72.3311 18.8602C72.7612 18.828 73.1874 18.8117 73.6089 18.8117C74.153 18.8117 74.6406 18.8322 75.0711 18.8723C75.5014 18.9128 75.8918 18.9613 76.2435 19.0178C76.5945 19.0745 76.9108 19.1352 77.1918 19.1995C77.4726 19.2643 77.7361 19.329 77.9821 19.3933L77.6661 22.2292Z" fill="black"/>
<path d="M91.1285 22.2292C90.9703 22.1649 90.8473 22.1163 90.7597 22.0837C90.6715 22.0516 90.597 22.0231 90.5357 21.9989C90.4738 21.9747 90.4125 21.9547 90.3511 21.9384C90.2895 21.9225 90.2063 21.8983 90.101 21.8656C89.4859 21.688 88.9549 21.579 88.5071 21.5385C88.059 21.4984 87.7121 21.4779 87.4664 21.4779C86.9039 21.4779 86.4166 21.5347 86.0041 21.6475C85.5913 21.7607 85.2796 21.9062 85.069 22.0837C84.77 22.294 84.5683 22.5322 84.463 22.7989C84.3575 23.0655 84.3048 23.304 84.3048 23.5139C84.3048 23.8047 84.353 24.047 84.4497 24.2409C84.546 24.4349 84.6473 24.5887 84.7527 24.7014C84.9458 24.9117 85.1743 25.0813 85.4378 25.2105C85.7011 25.34 86.0523 25.4854 86.4916 25.6467C86.7723 25.7438 87.0184 25.8326 87.2293 25.9132C87.4401 25.9944 87.6857 26.083 87.9669 26.18C88.7746 26.4549 89.4424 26.7374 89.9692 27.0283C90.4962 27.3191 90.9263 27.6263 91.2601 27.9493C91.5935 28.2727 91.857 28.6038 92.0504 28.9431C92.2436 29.2824 92.3798 29.6017 92.4589 29.9005C92.5379 30.1998 92.5861 30.4579 92.6038 30.6761C92.6211 30.8943 92.6301 31.0518 92.6301 31.1487C92.6475 31.7304 92.5511 32.3327 92.3403 32.9545C92.1296 33.5766 91.743 34.1541 91.1811 34.6874C90.9703 34.9139 90.7332 35.1079 90.4698 35.2692C90.0655 35.5441 89.653 35.7539 89.2315 35.8994C88.8099 36.0448 88.5552 36.1258 88.4676 36.1417C88.0106 36.2707 87.5494 36.3515 87.0843 36.3841C86.6188 36.4163 86.1576 36.4325 85.7011 36.4325C85.6132 36.4325 85.451 36.4284 85.2138 36.4204C84.9766 36.412 84.6955 36.3962 84.3707 36.3718C84.0455 36.3478 83.6944 36.3152 83.3169 36.2751C82.9391 36.2344 82.5661 36.1743 82.1972 36.0932C81.9511 36.0448 81.7316 35.9963 81.5386 35.9479C81.3451 35.8994 81.1256 35.8348 80.8799 35.7539L81.1961 32.6515C81.5123 32.8132 81.7626 32.9301 81.9469 33.0029C82.1314 33.0756 82.2936 33.1362 82.4344 33.1848C82.8909 33.3465 83.3869 33.4718 83.9228 33.5603C84.4583 33.6495 84.9545 33.6937 85.4115 33.6937C86.0436 33.6937 86.6538 33.5889 87.2424 33.3786C87.8306 33.1688 88.2567 32.7889 88.5202 32.2393C88.5552 32.1751 88.5947 32.0698 88.6387 31.9244C88.6824 31.7789 88.7045 31.6175 88.7045 31.4395C88.7045 31.1973 88.6474 30.9469 88.5334 30.6882C88.4189 30.4299 88.2304 30.1956 87.9669 29.9853C87.6681 29.727 87.2116 29.4926 86.5969 29.2824C85.982 29.0726 85.2707 28.806 84.463 28.4825C84.2345 28.3856 84.0324 28.3008 83.857 28.2281C83.6812 28.1554 83.4882 28.0626 83.2774 27.9493C82.9786 27.8203 82.7196 27.679 82.5002 27.5252C82.2804 27.3718 82.1181 27.2547 82.0127 27.1736C81.3804 26.6568 80.9631 26.1114 80.7615 25.5377C80.5593 24.9643 80.4585 24.3947 80.4585 23.8289C80.4585 23.3283 80.5066 22.9163 80.6033 22.5928C80.6996 22.2697 80.8008 21.9952 80.9063 21.7686C81.1343 21.2679 81.4333 20.8477 81.8021 20.5083C82.1709 20.169 82.5352 19.8986 82.8954 19.6963C83.255 19.4944 83.5844 19.349 83.8833 19.2601C84.1819 19.1715 84.3838 19.1108 84.4893 19.0782C84.928 18.9655 85.3628 18.8926 85.7935 18.8602C86.2236 18.828 86.6496 18.8117 87.0713 18.8117C87.6154 18.8117 88.1028 18.8322 88.5334 18.8723C88.9636 18.9128 89.3542 18.9613 89.7057 19.0178C90.0568 19.0745 90.373 19.1352 90.6541 19.1995C90.9348 19.2643 91.1983 19.329 91.4445 19.3933L91.1285 22.2292Z" fill="black"/>
<path d="M20.4567 47.0999C20.557 47.6079 20.654 48.0812 20.7477 48.5186C20.8409 48.9561 20.9308 49.3903 21.017 49.8207C21.1033 50.2514 21.1928 50.6889 21.2863 51.1333C21.3795 51.5781 21.4766 52.0544 21.5774 52.5627C21.6777 52.0264 21.7604 51.5394 21.8251 51.1017C21.8898 50.6642 21.9723 50.1774 22.0729 49.6408C22.159 49.1186 22.2416 48.6492 22.3208 48.2327C22.3996 47.8164 22.4824 47.3401 22.5686 46.8034L23.9693 39.4984H26.9864L28.4734 46.8459C28.5737 47.3682 28.6706 47.8589 28.7641 48.3173C28.8575 48.7763 28.9474 49.2313 29.0336 49.683C29.1198 50.135 29.2059 50.5936 29.2922 51.0593C29.3785 51.5252 29.4717 52.0194 29.5723 52.5416C29.6726 52.0619 29.7589 51.631 29.831 51.2499C29.9027 50.8689 29.9888 50.4383 30.0895 49.9582C30.2044 49.4221 30.3159 48.9456 30.4236 48.529C30.5313 48.1129 30.6498 47.6435 30.7792 47.1211L32.5246 39.4984H34.6796L30.8438 54.4471H28.1931L26.6631 47.0363C26.548 46.4577 26.4439 45.9178 26.3506 45.4165C26.2571 44.9157 26.1637 44.418 26.0705 43.9237C25.9768 43.4298 25.8836 42.9322 25.7904 42.4312C25.6967 41.9301 25.5998 41.3901 25.4993 40.8113C25.3842 41.4183 25.291 41.9617 25.2192 42.4416C25.1471 42.9217 25.0539 43.4653 24.9391 44.0719C24.8385 44.6367 24.7485 45.138 24.6696 45.5753C24.5906 46.013 24.5007 46.5143 24.4003 47.0787L22.935 54.4471H20.2196L16.4053 39.4984H18.6466L20.4567 47.0999Z" fill="black"/>
<path d="M37.201 47.0156C37.201 47.439 37.2403 47.8555 37.3195 48.2647C37.3984 48.6742 37.5098 49.0767 37.6535 49.4718C37.9408 50.2763 38.2964 50.9152 38.7203 51.388C39.144 51.861 39.575 52.221 40.0133 52.4678C40.4514 52.7149 40.8717 52.8701 41.274 52.9337C41.676 52.9971 42.0067 53.0288 42.2652 53.0288C42.61 53.0288 42.9727 52.9902 43.3535 52.9125C43.7339 52.8349 44.104 52.7079 44.4633 52.5313C44.8223 52.355 45.167 52.1185 45.4978 51.8219C45.828 51.5256 46.1226 51.1518 46.3813 50.6998C46.7115 50.1068 46.9525 49.4505 47.1032 48.7307C47.254 48.0107 47.3221 47.3543 47.308 46.7614C47.308 46.451 47.2827 46.1051 47.2326 45.7241C47.1819 45.3427 47.0958 44.9547 46.9739 44.5593C46.8517 44.1643 46.6901 43.7759 46.489 43.3947C46.2876 43.0136 46.0436 42.6679 45.7564 42.3573C45.6411 42.2445 45.5155 42.128 45.3792 42.0079C45.2425 41.888 45.0522 41.7505 44.8082 41.5949C44.5638 41.454 44.2371 41.3092 43.8276 41.1609C43.4182 41.0128 42.9188 40.9386 42.3299 40.9386C41.3527 40.9386 40.4551 41.2032 39.6361 41.7327C38.8173 42.262 38.1779 43.1125 37.7181 44.2842C37.4738 44.9192 37.3266 45.477 37.2764 45.9569C37.226 46.4368 37.201 46.7899 37.201 47.0156ZM34.9598 46.7614C34.974 46.197 35.0279 45.6429 35.1214 45.0992C35.2146 44.5559 35.3693 44.03 35.5847 43.5218C35.7858 43.056 36.012 42.6431 36.2636 42.2831C36.5148 41.9233 36.7733 41.6128 37.0394 41.3514C37.305 41.0905 37.5674 40.8681 37.826 40.6846C38.0845 40.5012 38.3143 40.3457 38.5155 40.2187C38.9321 39.993 39.4887 39.7777 40.1857 39.573C40.8823 39.3683 41.7265 39.2802 42.7179 39.3081C43.4792 39.3367 44.1219 39.4352 44.6465 39.6045C45.1707 39.774 45.5839 39.9365 45.8856 40.0917C46.5032 40.4303 47.0241 40.8259 47.448 41.2774C47.8716 41.7293 48.2201 42.2022 48.4933 42.696C48.7659 43.1904 48.9744 43.6772 49.1181 44.1571C49.2615 44.637 49.3623 45.0748 49.4198 45.4698C49.4771 45.8652 49.5093 46.1935 49.5168 46.4544C49.5238 46.7158 49.5276 46.8672 49.5276 46.9096C49.5276 47.0367 49.5201 47.2802 49.5059 47.6401C49.4916 48.0002 49.434 48.4202 49.3337 48.9C49.2329 49.38 49.0714 49.8988 48.8488 50.4563C48.6258 51.0141 48.3133 51.5541 47.9113 52.0761C47.4944 52.6126 47.0565 53.0431 46.5967 53.3677C46.1368 53.6927 45.6342 53.9605 45.0883 54.1722C44.7576 54.2993 44.3448 54.4193 43.8491 54.5324C43.3535 54.645 42.7319 54.6873 41.9851 54.6594C41.3386 54.645 40.6777 54.5602 40.0025 54.4051C39.327 54.2502 38.6665 53.9467 38.0198 53.4946C37.5027 53.128 37.1112 52.7854 36.8454 52.4678C36.5795 52.1501 36.3747 51.8927 36.2314 51.695C35.8864 51.1729 35.581 50.5164 35.3154 49.7258C35.0495 48.9355 34.9308 47.9472 34.9598 46.7614Z" fill="black"/>
<path d="M53.9021 39.4984V52.605H60.2162V54.4471H51.7256V39.4984H53.9021Z" fill="black"/>
<path d="M69.9572 39.4984V41.2771H64.1387V45.7447H69.7417V47.5655H64.1173V54.4471H61.9619V39.4984H69.9572Z" fill="black"/>
<path d="M79.0083 48.942C78.8789 48.6174 78.753 48.3141 78.6311 48.0314C78.5088 47.7492 78.3903 47.4704 78.2755 47.1952C78.1604 46.9197 78.0456 46.6375 77.9308 46.3483C77.8155 46.0591 77.6935 45.7519 77.5644 45.4271C77.406 45.0459 77.2625 44.6932 77.1333 44.3683C77.004 44.0439 76.8782 43.7193 76.7563 43.3944C76.6339 43.0697 76.5085 42.7416 76.3791 42.4099C76.2498 42.0783 76.1131 41.7216 75.9697 41.3406C75.7828 41.8629 75.6141 42.325 75.4632 42.7274C75.3124 43.1299 75.1363 43.5849 74.9353 44.0931C74.8201 44.418 74.7089 44.7039 74.6013 44.9508C74.4936 45.1979 74.382 45.4836 74.2672 45.8082C74.0229 46.3872 73.8147 46.913 73.6421 47.3858C73.4699 47.8589 73.2685 48.3776 73.0389 48.942H79.0083ZM77.1764 39.4984L83.7708 54.4471H81.271L79.6762 50.6358H72.3277L70.7545 54.4471H68.4487L74.8706 39.4984H77.1764Z" fill="black"/>
<path d="M95.2135 42.1664C95.0696 42.0817 94.9366 42.0042 94.8147 41.9335C94.6925 41.8629 94.5525 41.7926 94.3946 41.7217C93.9491 41.5242 93.468 41.3724 92.9507 41.2664C92.4334 41.1606 91.9519 41.1078 91.5068 41.1078C91.2193 41.1078 90.9068 41.1326 90.5695 41.1818C90.2316 41.2314 89.8869 41.3124 89.535 41.4252C89.1828 41.5383 88.8347 41.6792 88.4897 41.8487C88.1451 42.0182 87.836 42.2299 87.5632 42.484C87.1321 42.8512 86.7406 43.3732 86.3887 44.0508C86.0366 44.7284 85.8318 45.5331 85.7747 46.4647C85.7602 46.8459 85.7779 47.2482 85.8285 47.6716C85.8785 48.0951 85.9756 48.5186 86.1193 48.942C86.2628 49.3655 86.4642 49.782 86.7227 50.1913C86.9814 50.6009 87.3118 50.9819 87.7141 51.3346C88.2022 51.758 88.8094 52.1041 89.535 52.3721C90.2603 52.6405 91.1906 52.7606 92.3259 52.732C92.6705 52.7182 92.9615 52.697 93.1986 52.6687C93.4355 52.6405 93.6511 52.605 93.8449 52.5627C94.039 52.5203 94.2185 52.4747 94.3836 52.425C94.5488 52.3756 94.7178 52.3159 94.8902 52.2451L94.9548 54.2776C94.7679 54.3201 94.581 54.3625 94.3946 54.4048C94.2076 54.4472 94.0029 54.4895 93.7804 54.532C93.5574 54.5742 93.3063 54.606 93.026 54.6271C92.7459 54.6482 92.4262 54.6591 92.0672 54.6591C91.3777 54.6591 90.7849 54.6199 90.2894 54.5425C89.7935 54.4647 89.4092 54.391 89.1364 54.3201C88.9782 54.2776 88.7339 54.2074 88.4036 54.1085C88.0729 54.0098 87.7031 53.8542 87.2937 53.6426C86.8843 53.4307 86.4568 53.1485 86.0116 52.7956C85.5662 52.4429 85.1496 51.9911 84.7617 51.4406C84.6035 51.2288 84.4816 51.0382 84.3954 50.8689C84.3092 50.6994 84.2516 50.5724 84.2229 50.4875C84.0647 50.1632 83.896 49.7011 83.7166 49.1009C83.5368 48.501 83.4473 47.7847 83.4473 46.9517C83.4473 46.839 83.4542 46.6519 83.4687 46.3905C83.4829 46.1294 83.5189 45.8261 83.5766 45.4801C83.6337 45.1343 83.7237 44.7637 83.8459 44.3683C83.9676 43.9734 84.1368 43.5711 84.3522 43.1615C84.6109 42.6818 84.9484 42.2124 85.3651 41.7534C85.7816 41.295 86.2844 40.8853 86.8736 40.5253C87.4625 40.1655 88.1342 39.8725 88.8885 39.6466C89.6429 39.4212 90.494 39.3078 91.4422 39.3078C92.4046 39.3078 93.2057 39.3999 93.8449 39.5831C94.4841 39.7667 95.0121 39.9574 95.4289 40.1547L95.2135 42.1664Z" fill="black"/>
<path d="M99.2644 39.4984V45.7237H106.527V39.4984H108.66V54.4471H106.548V47.5446H99.3073V54.4471H97.1309V39.4984H99.2644Z" fill="black"/>
</svg>
