<svg width="146" height="56" viewBox="0 0 146 56" fill="none" xmlns="http://www.w3.org/2000/svg">
<g clip-path="url(#clip0_2528_224)">
<path d="M1.82812 2.39648C13.6133 24.3683 23.2001 40.8968 49.5445 43.5091C62.119 44.756 72.8297 38.7844 77.6118 26.7118C86.314 4.74285 48.4636 7.64219 50.8685 26.334C55.2773 60.6003 100.005 57.6853 122.307 44.7865C128.806 41.0275 136.129 36.6305 142.122 32.224C147.321 28.4018 142.476 34.5609 141.175 36.6778C138.766 40.5995 137.675 44.7697 135.319 48.6032C131.197 55.3113 134.451 48.5274 136.505 45.5626C142.397 37.0582 149.426 31.0529 135.591 29.3025C132.806 28.9503 118.723 26.0124 119.829 27.7396C122.964 32.6365 124.094 40.0152 127.273 44.3946C131.623 50.3894 132.237 55.1477 129.799 44.3925C129.004 40.8832 127.809 37.767 126.876 34.3757C125.34 28.787 128.67 35.789 128.679 36.5757C128.706 38.8606 131.289 43.0721 129.919 38.0881C129.566 36.805 127.366 31.8876 128.389 33.1361C131.62 37.0781 131.934 45.492 133.462 41.8502C134.746 38.7898 133.822 36.9447 131.655 34.5968C130.917 33.7976 125.989 32.7315 127.151 34.1503" stroke="black" stroke-width="3" stroke-linecap="round"/>
</g>
<defs>
<clipPath id="clip0_2528_224">
<rect width="146" height="56" fill="white"/>
</clipPath>
</defs>
</svg>
