<svg width="326" height="326" viewBox="0 0 326 326" fill="none" xmlns="http://www.w3.org/2000/svg">
<g clip-path="url(#clip0_95_611)">
<path d="M326 162.965C326 252.97 252.97 326 162.965 326C72.9603 326 0 252.97 0 162.965C0 72.9603 72.9603 0 162.965 0C253.04 0 326 72.9603 326 162.965Z" fill="black"/>
<path d="M325.418 162.965C325.418 252.649 252.649 325.418 162.965 325.418C73.282 325.418 0.582031 252.649 0.582031 162.965C0.582031 73.2817 73.2817 0.582031 162.965 0.582031C252.718 0.582031 325.418 73.2818 325.418 162.965Z" stroke="white" stroke-opacity="0.24" stroke-width="1.16429"/>
<path d="M163.095 30.884C174.456 30.884 177.201 42.7959 188.243 45.2165C199.349 47.5734 206.689 37.6999 217.029 42.35C227.369 47.0001 225.008 58.9757 234.199 65.6642C243.39 72.3527 254.113 66.3012 261.708 74.7733C269.304 83.1817 262.219 93.1825 267.9 102.992C273.58 112.802 285.835 111.656 289.346 122.485C292.856 133.314 282.325 139.492 283.473 150.767C284.686 162.042 296.303 165.992 295.09 177.267C293.877 188.541 281.686 190.007 278.24 200.772C274.729 211.601 283.729 219.882 278.048 229.692C272.368 239.501 260.623 235.871 253.028 244.279C245.432 252.687 250.283 263.962 241.092 270.651C231.901 277.339 222.646 269.249 212.306 273.836C201.966 278.486 201.774 290.716 190.668 293.073C179.563 295.43 174.392 284.346 163.031 284.346C151.67 284.346 146.5 295.494 135.394 293.073C124.288 290.716 124.097 278.422 113.756 273.836C103.416 269.186 94.1615 277.275 84.9703 270.651C75.7792 263.962 80.6301 252.687 73.0346 244.279C65.4392 235.871 53.6949 239.501 48.0143 229.692C42.3337 219.882 51.3333 211.537 47.8228 200.772C44.3123 189.943 32.0575 188.605 30.9724 177.267C29.7597 165.992 41.3763 162.042 42.589 150.767C43.8017 139.492 33.2063 133.186 36.7169 122.485C40.355 111.719 52.6099 112.866 58.2905 102.992C63.9711 93.1825 56.8863 83.1817 64.4818 74.7733C72.0772 66.3649 82.8002 72.3527 91.9914 65.6642C101.182 58.9757 98.7571 47.0001 109.161 42.35C119.501 37.6999 126.905 47.5734 137.947 45.2165C148.989 42.7959 151.734 30.884 163.095 30.884Z" fill="white"/>
<path d="M262.242 151.334L223.885 165.829C222.496 166.355 220.935 165.627 220.418 164.213L206.168 125.194C205.652 123.779 206.366 122.192 207.758 121.667L246.115 107.171C247.504 106.646 249.065 107.373 249.582 108.788L263.832 147.806C264.348 149.22 263.634 150.808 262.242 151.334Z" fill="#90C949"/>
<path d="M233.991 145.243L234 148.955L218.009 149L218 145.054C218.786 144.362 219.488 143.724 220.108 143.143C220.726 142.561 221.407 141.902 222.147 141.164C222.597 140.695 223.002 140.27 223.361 139.89C223.72 139.51 224.125 139.074 224.575 138.583C224.867 138.27 225.12 137.985 225.333 137.728C225.547 137.471 225.789 137.175 226.058 136.839C226.17 136.728 226.34 136.516 226.564 136.203C226.788 135.89 227.012 135.544 227.237 135.164C227.371 134.941 227.562 134.545 227.808 133.975C228.056 133.407 228.177 132.787 228.175 132.119C228.175 131.807 228.122 131.462 228.021 131.083C227.918 130.704 227.725 130.354 227.443 130.031C227.16 129.709 226.777 129.437 226.293 129.215C225.807 128.994 225.18 128.884 224.414 128.886C224.009 128.887 223.659 128.911 223.366 128.956C223.074 129.002 222.848 129.046 222.691 129.091C221.992 129.25 221.356 129.475 220.783 129.765C220.209 130.057 219.573 130.404 218.876 130.808L218.459 126.662C218.639 126.617 218.932 126.5 219.337 126.309C219.743 126.119 220.182 125.955 220.653 125.82C221.06 125.685 221.746 125.522 222.714 125.33C223.683 125.138 224.743 125.029 225.892 125.003C226.907 124.978 227.909 125.109 228.903 125.396C229.894 125.683 230.819 126.293 231.679 127.227C232.266 127.872 232.685 128.573 232.934 129.33C233.117 129.842 233.22 130.299 233.243 130.7C233.267 131.101 233.279 131.391 233.279 131.569C233.281 132.261 233.214 132.879 233.081 133.426C232.947 133.973 232.824 134.368 232.712 134.614C232.376 135.507 231.894 136.405 231.265 137.31C230.637 138.214 229.929 139.114 229.143 140.007C228.355 140.902 227.514 141.79 226.614 142.673C225.715 143.556 224.828 144.422 223.95 145.272L233.991 145.243Z" fill="white"/>
<path d="M238.463 140.811L244.495 140.795L244.571 130.082L238.463 140.811ZM249.232 126L249.271 140.782L251.991 140.775L252 144.291L249.282 144.298L249.293 148.987L244.379 149L244.366 144.312L234.011 144.339L234 140.66L242.956 126.017L249.232 126Z" fill="white"/>
<path d="M77 137V141.628H66.8781V148.052H76.591V152.489H66.8781V164H61V137H77Z" fill="black"/>
<path d="M87 137V164H81V137H87Z" fill="black"/>
<path d="M112 137V141.551H103.505V164H97.4517V141.551H89V137H112Z" fill="black"/>
<path d="M129.459 150.538C129.75 151.048 129.996 151.514 130.195 151.934C130.392 152.355 130.637 152.82 130.929 153.33C131.247 153.942 131.531 154.49 131.783 154.975C132.034 155.459 132.306 156.007 132.597 156.619C132.729 156.925 132.848 157.199 132.955 157.441C133.061 157.684 133.18 157.957 133.312 158.264C133.234 157.55 133.166 156.906 133.115 156.332C133.061 155.758 133.02 155.102 132.996 154.363C132.94 153.879 132.916 153.445 132.916 153.062C132.916 152.68 132.916 152.246 132.916 151.762L132.756 137H138V164H131.327L122.825 148.817C122.429 148.129 122.096 147.555 121.831 147.096C121.567 146.637 121.336 146.211 121.137 145.815C120.939 145.42 120.74 144.993 120.541 144.534C120.342 144.075 120.097 143.501 119.805 142.813C119.912 143.96 119.985 144.993 120.024 145.911C120.065 146.829 120.111 147.874 120.164 149.047L120.283 164H115V137H121.792L129.459 150.538Z" fill="black"/>
<path d="M162.872 137V141.551H151.184V147.976H161.889V152.412H151.184V159.449H163V164H145V137H162.872Z" fill="black"/>
<path d="M182.653 142.237C182.407 142.138 182.215 142.064 182.077 142.014C181.941 141.965 181.824 141.921 181.728 141.884C181.632 141.847 181.537 141.816 181.441 141.791C181.343 141.767 181.215 141.729 181.049 141.679C180.091 141.407 179.261 141.24 178.562 141.178C177.863 141.117 177.322 141.085 176.938 141.085C176.06 141.085 175.301 141.172 174.657 141.345C174.011 141.519 173.526 141.742 173.196 142.014C172.731 142.336 172.416 142.701 172.251 143.109C172.087 143.518 172.004 143.883 172.004 144.205C172.004 144.651 172.08 145.022 172.23 145.319C172.381 145.616 172.54 145.852 172.703 146.025C173.005 146.347 173.362 146.607 173.772 146.805C174.184 147.003 174.732 147.226 175.417 147.473C175.854 147.622 176.239 147.758 176.568 147.882C176.897 148.006 177.28 148.142 177.72 148.29C178.98 148.712 180.023 149.144 180.845 149.59C181.667 150.036 182.339 150.506 182.859 151.001C183.38 151.497 183.792 152.004 184.094 152.524C184.393 153.044 184.607 153.533 184.73 153.991C184.853 154.45 184.929 154.845 184.956 155.18C184.984 155.514 184.997 155.755 184.997 155.904C185.024 156.795 184.874 157.718 184.546 158.671C184.217 159.624 183.613 160.509 182.736 161.326C182.407 161.673 182.037 161.97 181.625 162.218C180.996 162.639 180.352 162.96 179.693 163.183C179.035 163.406 178.638 163.53 178.501 163.554C177.788 163.752 177.068 163.876 176.342 163.926C175.615 163.975 174.896 164 174.184 164C174.046 164 173.792 163.994 173.422 163.981C173.053 163.969 172.613 163.944 172.107 163.907C171.6 163.87 171.051 163.82 170.463 163.759C169.872 163.697 169.291 163.604 168.715 163.48C168.331 163.406 167.989 163.332 167.687 163.258C167.385 163.183 167.043 163.084 166.659 162.96L167.152 158.206C167.646 158.454 168.036 158.633 168.323 158.745C168.612 158.856 168.864 158.949 169.085 159.024C169.797 159.271 170.571 159.463 171.408 159.599C172.243 159.736 173.018 159.803 173.732 159.803C174.718 159.803 175.67 159.643 176.588 159.321C177.506 158.999 178.172 158.417 178.582 157.575C178.638 157.476 178.698 157.315 178.768 157.092C178.836 156.87 178.871 156.622 178.871 156.349C178.871 155.978 178.781 155.594 178.604 155.198C178.424 154.802 178.132 154.443 177.72 154.121C177.252 153.725 176.54 153.366 175.582 153.044C174.622 152.723 173.511 152.314 172.251 151.818C171.894 151.67 171.579 151.54 171.305 151.429C171.031 151.317 170.729 151.175 170.4 151.001C169.935 150.804 169.53 150.587 169.188 150.351C168.844 150.117 168.592 149.937 168.426 149.813C167.44 149.021 166.789 148.185 166.475 147.306C166.158 146.427 166 145.555 166 144.688C166 143.921 166.075 143.289 166.226 142.794C166.377 142.299 166.535 141.878 166.701 141.531C167.056 140.764 167.523 140.12 168.097 139.6C168.673 139.08 169.241 138.665 169.804 138.356C170.365 138.046 170.88 137.823 171.346 137.687C171.813 137.551 172.127 137.458 172.291 137.408C172.977 137.236 173.654 137.124 174.328 137.074C174.999 137.025 175.663 137 176.322 137C177.171 137 177.931 137.031 178.604 137.093C179.276 137.155 179.885 137.229 180.433 137.316C180.981 137.403 181.474 137.496 181.914 137.594C182.352 137.694 182.764 137.793 183.146 137.891L182.653 142.237Z" fill="black"/>
<path d="M203.653 142.237C203.407 142.138 203.215 142.064 203.077 142.014C202.94 141.965 202.824 141.921 202.728 141.884C202.632 141.847 202.537 141.816 202.441 141.791C202.343 141.767 202.215 141.73 202.049 141.68C201.091 141.407 200.261 141.24 199.562 141.178C198.863 141.117 198.322 141.085 197.938 141.085C197.06 141.085 196.299 141.172 195.655 141.345C195.011 141.519 194.526 141.742 194.196 142.014C193.729 142.336 193.414 142.701 193.251 143.11C193.085 143.518 193.004 143.883 193.004 144.205C193.004 144.651 193.08 145.022 193.23 145.319C193.379 145.616 193.538 145.852 193.703 146.025C194.003 146.347 194.36 146.607 194.772 146.805C195.182 147.003 195.73 147.226 196.417 147.473C196.854 147.622 197.239 147.758 197.568 147.882C197.897 148.006 198.28 148.142 198.72 148.29C199.98 148.712 201.023 149.145 201.845 149.59C202.667 150.036 203.339 150.507 203.859 151.001C204.38 151.497 204.79 152.004 205.092 152.524C205.393 153.044 205.607 153.533 205.73 153.991C205.853 154.45 205.929 154.845 205.956 155.18C205.982 155.514 205.997 155.755 205.997 155.904C206.024 156.795 205.874 157.718 205.544 158.671C205.215 159.624 204.613 160.509 203.736 161.326C203.407 161.673 203.037 161.971 202.625 162.218C201.994 162.639 201.35 162.96 200.693 163.183C200.035 163.406 199.638 163.53 199.501 163.554C198.788 163.752 198.068 163.876 197.342 163.926C196.615 163.975 195.896 164 195.182 164C195.046 164 194.792 163.994 194.423 163.982C194.053 163.969 193.613 163.944 193.107 163.907C192.6 163.87 192.051 163.82 191.463 163.759C190.872 163.697 190.291 163.604 189.713 163.48C189.331 163.406 188.989 163.332 188.687 163.258C188.385 163.183 188.041 163.084 187.659 162.96L188.152 158.206C188.645 158.454 189.036 158.634 189.323 158.745C189.612 158.856 189.864 158.949 190.085 159.024C190.797 159.271 191.571 159.463 192.408 159.599C193.243 159.736 194.018 159.803 194.732 159.803C195.718 159.803 196.67 159.643 197.588 159.321C198.506 158.999 199.172 158.417 199.582 157.575C199.638 157.477 199.698 157.315 199.768 157.092C199.836 156.87 199.871 156.622 199.871 156.349C199.871 155.978 199.781 155.594 199.603 155.198C199.424 154.802 199.13 154.443 198.72 154.121C198.252 153.725 197.54 153.366 196.58 153.044C195.622 152.723 194.511 152.314 193.251 151.818C192.894 151.67 192.579 151.54 192.305 151.429C192.031 151.317 191.729 151.175 191.4 151.001C190.933 150.804 190.53 150.587 190.188 150.352C189.844 150.117 189.59 149.937 189.426 149.813C188.44 149.021 187.787 148.185 187.473 147.306C187.158 146.427 187 145.555 187 144.688C187 143.921 187.075 143.29 187.226 142.794C187.377 142.299 187.535 141.878 187.699 141.531C188.056 140.764 188.521 140.12 189.097 139.6C189.673 139.08 190.241 138.665 190.804 138.356C191.365 138.046 191.88 137.823 192.346 137.687C192.811 137.551 193.127 137.458 193.291 137.408C193.975 137.236 194.654 137.124 195.328 137.074C195.999 137.025 196.663 137 197.322 137C198.17 137 198.931 137.031 199.603 137.093C200.274 137.155 200.885 137.229 201.433 137.316C201.981 137.403 202.474 137.496 202.914 137.594C203.352 137.694 203.762 137.793 204.146 137.891L203.653 142.237Z" fill="black"/>
<path d="M92.4288 181.204C92.5878 182.02 92.7412 182.78 92.8909 183.481C93.0386 184.185 93.1808 184.883 93.3173 185.573C93.4558 186.265 93.5979 186.967 93.7457 187.679C93.8934 188.394 94.0468 189.158 94.2077 189.976C94.3667 189.115 94.4976 188.332 94.6005 187.63C94.7034 186.927 94.8343 186.146 94.9933 185.285C95.1298 184.445 95.2608 183.692 95.388 183.023C95.5114 182.355 95.6442 181.59 95.7808 180.728L98.0029 169H102.791L105.152 180.797C105.311 181.635 105.464 182.423 105.612 183.159C105.762 183.897 105.904 184.627 106.04 185.351C106.177 186.077 106.313 186.813 106.45 187.562C106.588 188.309 106.736 189.103 106.895 189.942C107.054 189.172 107.191 188.48 107.305 187.867C107.419 187.255 107.555 186.565 107.716 185.793C107.898 184.932 108.075 184.168 108.246 183.499C108.418 182.831 108.605 182.077 108.811 181.239L111.581 169H115L108.913 193H104.707L102.279 181.102C102.096 180.173 101.931 179.307 101.783 178.502C101.634 177.698 101.486 176.898 101.338 176.105C101.188 175.312 101.041 174.513 100.893 173.709C100.745 172.904 100.592 172.037 100.431 171.108C100.249 172.083 100.102 172.955 99.9875 173.726C99.8734 174.496 99.7237 175.369 99.5423 176.343C99.3833 177.25 99.2393 178.055 99.114 178.757C98.9886 179.459 98.8465 180.264 98.6875 181.17L96.3625 193H92.0529L86 169H89.5558L92.4288 181.204Z" fill="black"/>
<path d="M119.39 181.047C119.39 181.708 119.448 182.36 119.569 182.998C119.687 183.638 119.856 184.267 120.073 184.884C120.507 186.14 121.043 187.138 121.683 187.878C122.322 188.616 122.974 189.178 123.636 189.564C124.298 189.949 124.931 190.193 125.54 190.291C126.146 190.39 126.645 190.44 127.036 190.44C127.556 190.44 128.104 190.379 128.679 190.257C129.254 190.137 129.812 189.938 130.355 189.663C130.896 189.387 131.417 189.018 131.916 188.555C132.414 188.092 132.859 187.509 133.25 186.802C133.749 185.876 134.112 184.85 134.339 183.727C134.567 182.602 134.67 181.576 134.649 180.65C134.649 180.165 134.612 179.625 134.535 179.03C134.459 178.434 134.329 177.828 134.146 177.21C133.96 176.593 133.717 175.987 133.412 175.391C133.108 174.796 132.74 174.256 132.307 173.771C132.133 173.594 131.942 173.413 131.738 173.225C131.531 173.038 131.243 172.823 130.875 172.58C130.506 172.36 130.013 172.133 129.394 171.902C128.777 171.671 128.022 171.555 127.134 171.555C125.657 171.555 124.303 171.968 123.066 172.795C121.829 173.622 120.865 174.95 120.171 176.781C119.802 177.772 119.58 178.644 119.503 179.393C119.427 180.143 119.39 180.695 119.39 181.047ZM116.007 180.65C116.028 179.768 116.108 178.903 116.25 178.054C116.391 177.205 116.624 176.384 116.95 175.59C117.252 174.862 117.594 174.217 117.975 173.655C118.354 173.093 118.744 172.608 119.146 172.199C119.546 171.792 119.943 171.445 120.333 171.158C120.724 170.871 121.071 170.628 121.374 170.43C122.004 170.078 122.844 169.741 123.895 169.421C124.947 169.102 126.223 168.964 127.72 169.008C128.869 169.052 129.839 169.206 130.631 169.471C131.423 169.736 132.046 169.989 132.501 170.232C133.434 170.761 134.22 171.379 134.861 172.084C135.5 172.79 136.026 173.528 136.439 174.3C136.85 175.072 137.165 175.833 137.382 176.582C137.6 177.332 137.751 178.015 137.838 178.632C137.923 179.25 137.973 179.763 137.984 180.17C137.995 180.579 138 180.815 138 180.881C138 181.08 137.989 181.46 137.968 182.023C137.947 182.585 137.859 183.242 137.708 183.991C137.555 184.74 137.311 185.551 136.975 186.422C136.639 187.293 136.167 188.136 135.56 188.951C134.93 189.789 134.27 190.462 133.576 190.969C132.88 191.477 132.122 191.895 131.298 192.226C130.798 192.425 130.175 192.611 129.426 192.788C128.679 192.964 127.741 193.03 126.613 192.988C125.638 192.964 124.639 192.833 123.62 192.589C122.6 192.347 121.601 191.873 120.626 191.167C119.845 190.595 119.254 190.06 118.852 189.564C118.452 189.067 118.142 188.665 117.925 188.357C117.405 187.54 116.944 186.516 116.542 185.28C116.142 184.046 115.962 182.502 116.007 180.65Z" fill="black"/>
<path d="M145.333 169V190.042H155V193H142V169H145.333Z" fill="black"/>
<path d="M170 169V171.856H161.268V179.028H169.678V181.952H161.236V193H158V169H170Z" fill="black"/>
<path d="M184.54 184.162C184.337 183.641 184.139 183.154 183.949 182.701C183.757 182.247 183.572 181.799 183.391 181.357C183.212 180.915 183.031 180.462 182.852 179.997C182.671 179.533 182.479 179.04 182.278 178.519C182.031 177.906 181.806 177.34 181.602 176.819C181.399 176.298 181.204 175.777 181.012 175.255C180.82 174.734 180.624 174.207 180.421 173.674C180.22 173.142 180.006 172.569 179.78 171.958C179.487 172.796 179.223 173.538 178.986 174.184C178.75 174.83 178.475 175.561 178.159 176.377C177.98 176.898 177.805 177.357 177.637 177.754C177.469 178.15 177.294 178.609 177.113 179.13C176.73 180.06 176.406 180.904 176.134 181.663C175.865 182.422 175.549 183.256 175.189 184.162H184.54ZM181.671 169L192 193H188.084L185.586 186.881H174.076L171.611 193H168L178.058 169H181.671Z" fill="black"/>
<path d="M209.676 173.469C209.46 173.337 209.26 173.215 209.077 173.105C208.893 172.994 208.684 172.885 208.447 172.774C207.778 172.465 207.053 172.228 206.278 172.062C205.5 171.897 204.776 171.814 204.109 171.814C203.677 171.814 203.206 171.853 202.699 171.93C202.193 172.007 201.674 172.134 201.146 172.31C200.617 172.487 200.092 172.707 199.575 172.972C199.057 173.237 198.593 173.568 198.184 173.966C197.535 174.54 196.948 175.356 196.418 176.415C195.889 177.474 195.582 178.732 195.496 180.189C195.474 180.785 195.501 181.414 195.577 182.076C195.651 182.738 195.798 183.399 196.014 184.062C196.229 184.723 196.531 185.375 196.921 186.015C197.309 186.654 197.805 187.251 198.41 187.803C199.143 188.464 200.055 189.005 201.146 189.424C202.235 189.843 203.632 190.031 205.338 189.987C205.856 189.965 206.294 189.931 206.65 189.887C207.006 189.843 207.33 189.787 207.62 189.723C207.912 189.656 208.181 189.584 208.429 189.507C208.677 189.429 208.932 189.337 209.191 189.226L209.288 192.404C209.007 192.47 208.727 192.537 208.447 192.601C208.165 192.668 207.857 192.734 207.523 192.801C207.188 192.867 206.811 192.917 206.389 192.95C205.97 192.982 205.49 193 204.95 193C203.914 193 203.023 192.937 202.279 192.817C201.534 192.695 200.957 192.581 200.546 192.47C200.308 192.404 199.942 192.293 199.446 192.138C198.949 191.985 198.393 191.741 197.778 191.41C197.164 191.08 196.521 190.639 195.851 190.087C195.182 189.534 194.557 188.829 193.974 187.967C193.735 187.636 193.553 187.339 193.424 187.073C193.294 186.809 193.208 186.61 193.165 186.477C192.926 185.971 192.673 185.249 192.404 184.309C192.133 183.371 192 182.252 192 180.95C192 180.774 192.009 180.481 192.032 180.073C192.053 179.665 192.106 179.19 192.193 178.649C192.28 178.109 192.414 177.53 192.599 176.911C192.781 176.294 193.036 175.665 193.358 175.025C193.748 174.275 194.254 173.541 194.881 172.823C195.506 172.107 196.262 171.466 197.148 170.903C198.031 170.341 199.041 169.883 200.174 169.53C201.307 169.177 202.586 169 204.011 169C205.456 169 206.66 169.144 207.62 169.43C208.582 169.717 209.373 170.015 210 170.324L209.676 173.469Z" fill="black"/>
<path d="M216.331 169V178.995H227.669V169H231V193H227.703V181.918H216.397V193H213V169H216.331Z" fill="black"/>
<path d="M162.972 213L156.816 225.465C156.709 225.712 156.479 225.854 156.23 225.889L142.445 227.89L152.434 237.593C152.611 237.77 152.717 238.036 152.647 238.301L150.287 252.006L162.617 245.543C162.83 245.419 163.114 245.419 163.362 245.543L175.692 252.006L173.333 238.301C173.297 238.036 173.368 237.788 173.546 237.593L183.534 227.89L169.749 225.889C169.483 225.854 169.27 225.695 169.164 225.465L162.972 213Z" fill="#F09035"/>
<path d="M212.3 218.778L207.981 227.522C207.906 227.696 207.745 227.796 207.57 227.82L197.9 229.224L204.907 236.03C205.032 236.155 205.106 236.341 205.056 236.527L203.401 246.141L212.051 241.607C212.2 241.52 212.399 241.52 212.573 241.607L221.223 246.141L219.568 236.527C219.543 236.341 219.593 236.167 219.717 236.03L226.724 229.224L217.054 227.82C216.867 227.796 216.718 227.684 216.643 227.522L212.3 218.778Z" fill="#F09035"/>
<path d="M113.631 218.778L109.312 227.522C109.237 227.696 109.076 227.796 108.901 227.821L99.2314 229.224L106.238 236.03C106.363 236.155 106.437 236.341 106.387 236.527L104.732 246.141L113.382 241.607C113.531 241.52 113.73 241.52 113.904 241.607L122.554 246.141L120.899 236.527C120.874 236.341 120.924 236.167 121.048 236.03L128.055 229.224L118.385 227.821C118.198 227.796 118.049 227.684 117.974 227.522L113.631 218.778Z" fill="#F09035"/>
</g>
<defs>
<clipPath id="clip0_95_611">
<rect width="326" height="326" fill="white"/>
</clipPath>
</defs>
</svg>
